<svg width="24" height="24" viewBox="0 0 24 24" fill="none" xmlns="http://www.w3.org/2000/svg">
<rect x="4" y="6" width="16" height="11" fill="#EEF3F8"/>
<rect x="4" y="6" width="9" height="7" fill="#41479B"/>
<rect x="13" y="6" width="7" height="1" fill="#DC251C"/>
<rect x="13" y="8" width="7" height="1" fill="#DC251C"/>
<rect x="13" y="10" width="7" height="1" fill="#DC251C"/>
<rect x="13" y="12" width="7" height="1" fill="#DC251C"/>
<rect x="4" y="14" width="16" height="1" fill="#DC251C"/>
<rect x="4" y="16" width="16" height="1" fill="#DC251C"/>
<rect x="5" y="7" width="1" height="1" fill="#C5D0EC"/>
<rect x="7" y="7" width="1" height="1" fill="#C5D0EC"/>
<rect x="9" y="7" width="1" height="1" fill="#C5D0EC"/>
<rect x="11" y="7" width="1" height="1" fill="#C5D0EC"/>
<rect x="5" y="9" width="1" height="1" fill="#C5D0EC"/>
<rect x="7" y="9" width="1" height="1" fill="#C5D0EC"/>
<rect x="9" y="9" width="1" height="1" fill="#C5D0EC"/>
<rect x="6" y="10" width="1" height="1" fill="#C5D0EC"/>
<rect x="8" y="10" width="1" height="1" fill="#C5D0EC"/>
<rect x="10" y="10" width="1" height="1" fill="#C5D0EC"/>
<rect x="6" y="8" width="1" height="1" fill="#C5D0EC"/>
<rect x="8" y="8" width="1" height="1" fill="#C5D0EC"/>
<rect x="10" y="8" width="1" height="1" fill="#C5D0EC"/>
<rect x="11" y="9" width="1" height="1" fill="#C5D0EC"/>
<rect x="5" y="11" width="1" height="1" fill="#C5D0EC"/>
<rect x="7" y="11" width="1" height="1" fill="#C5D0EC"/>
<rect x="9" y="11" width="1" height="1" fill="#C5D0EC"/>
<rect x="11" y="11" width="1" height="1" fill="#C5D0EC"/>
</svg>
